<svg width="146" height="42" viewBox="0 0 146 42" fill="none" xmlns="http://www.w3.org/2000/svg">
<path d="M11.228 25.708V31H8.876C4.54533 31 2.38 28.844 2.38 24.532V20.388H0.42V15.208H2.38V11.4H8.596V15.208H11.172V20.388H8.596V24.644C8.596 25.0173 8.68 25.288 8.848 25.456C9.03467 25.624 9.33333 25.708 9.744 25.708H11.228ZM21.0993 31.196C19.5126 31.196 18.0846 30.8693 16.8153 30.216C15.546 29.5627 14.5473 28.6293 13.8193 27.416C13.11 26.184 12.7553 24.7467 12.7553 23.104C12.7553 21.4613 13.11 20.0333 13.8193 18.82C14.5473 17.588 15.546 16.6453 16.8153 15.992C18.0846 15.3387 19.5126 15.012 21.0993 15.012C22.686 15.012 24.114 15.3387 25.3833 15.992C26.6526 16.6453 27.642 17.588 28.3513 18.82C29.0793 20.0333 29.4433 21.4613 29.4433 23.104C29.4433 24.7467 29.0793 26.184 28.3513 27.416C27.642 28.6293 26.6526 29.5627 25.3833 30.216C24.114 30.8693 22.686 31.196 21.0993 31.196ZM21.0993 25.82C21.678 25.82 22.1633 25.596 22.5553 25.148C22.9473 24.6813 23.1433 24 23.1433 23.104C23.1433 22.208 22.9473 21.536 22.5553 21.088C22.1633 20.6213 21.678 20.388 21.0993 20.388C20.5206 20.388 20.0353 20.6213 19.6433 21.088C19.2513 21.536 19.0553 22.208 19.0553 23.104C19.0553 24 19.242 24.6813 19.6153 25.148C20.0073 25.596 20.502 25.82 21.0993 25.82ZM42.4561 15.096C44.2668 15.096 45.6761 15.7027 46.6841 16.916C47.7108 18.1293 48.2241 19.772 48.2241 21.844V31H42.0361V22.628C42.0361 21.8813 41.8308 21.2933 41.4201 20.864C41.0281 20.416 40.4961 20.192 39.8241 20.192C39.1334 20.192 38.5921 20.416 38.2001 20.864C37.8081 21.2933 37.6121 21.8813 37.6121 22.628V31H31.3961V15.208H37.6121V17.616C38.0974 16.8693 38.7414 16.2627 39.5441 15.796C40.3654 15.3293 41.3361 15.096 42.4561 15.096ZM66.2075 22.964C66.2075 23.3933 66.1795 23.804 66.1235 24.196H56.1275C56.2209 25.5587 56.7902 26.24 57.8355 26.24C58.5075 26.24 58.9929 25.932 59.2915 25.316H65.8715C65.6475 26.436 65.1715 27.444 64.4435 28.34C63.7342 29.2173 62.8289 29.9173 61.7275 30.44C60.6449 30.944 59.4502 31.196 58.1435 31.196C56.5755 31.196 55.1755 30.8693 53.9435 30.216C52.7302 29.5627 51.7782 28.6293 51.0875 27.416C50.4155 26.184 50.0795 24.7467 50.0795 23.104C50.0795 21.4613 50.4155 20.0333 51.0875 18.82C51.7782 17.588 52.7302 16.6453 53.9435 15.992C55.1755 15.3387 56.5755 15.012 58.1435 15.012C59.7115 15.012 61.1022 15.3387 62.3155 15.992C63.5475 16.6267 64.4995 17.5413 65.1715 18.736C65.8622 19.9307 66.2075 21.34 66.2075 22.964ZM59.9075 21.48C59.9075 20.9573 59.7395 20.5653 59.4035 20.304C59.0675 20.024 58.6475 19.884 58.1435 19.884C57.0422 19.884 56.3982 20.416 56.2115 21.48H59.9075Z" fill="#55C79E"/>
<path d="M89.2574 15.096C91.2734 15.096 92.8321 15.7027 93.9334 16.916C95.0534 18.1293 95.6134 19.772 95.6134 21.844V31H89.4254V22.628C89.4254 21.956 89.2201 21.4333 88.8094 21.06C88.4174 20.668 87.8854 20.472 87.2134 20.472C86.5228 20.472 85.9814 20.668 85.5894 21.06C85.1974 21.4333 85.0014 21.956 85.0014 22.628V31H78.8134V22.628C78.8134 21.956 78.6081 21.4333 78.1974 21.06C77.8054 20.668 77.2734 20.472 76.6014 20.472C75.9108 20.472 75.3694 20.668 74.9774 21.06C74.5854 21.4333 74.3894 21.956 74.3894 22.628V31H68.1734V15.208H74.3894V17.336C74.8374 16.664 75.4441 16.1227 76.2094 15.712C76.9934 15.3013 77.9081 15.096 78.9534 15.096C80.0921 15.096 81.1001 15.348 81.9774 15.852C82.8548 16.3373 83.5548 17.028 84.0774 17.924C84.6561 17.1027 85.3934 16.4307 86.2894 15.908C87.1854 15.3667 88.1748 15.096 89.2574 15.096ZM97.4663 23.104C97.4663 21.4427 97.7463 20.0053 98.3063 18.792C98.8849 17.56 99.6689 16.6267 100.658 15.992C101.648 15.3387 102.758 15.012 103.99 15.012C105.017 15.012 105.904 15.2267 106.65 15.656C107.397 16.0667 107.966 16.636 108.358 17.364V15.208H114.546V31H108.358V28.844C107.966 29.572 107.397 30.1507 106.65 30.58C105.904 30.9907 105.017 31.196 103.99 31.196C102.758 31.196 101.648 30.8787 100.658 30.244C99.6689 29.5907 98.8849 28.6573 98.3063 27.444C97.7463 26.212 97.4663 24.7653 97.4663 23.104ZM108.358 23.104C108.358 22.264 108.144 21.6107 107.714 21.144C107.285 20.6773 106.734 20.444 106.062 20.444C105.39 20.444 104.84 20.6773 104.41 21.144C103.981 21.6107 103.766 22.264 103.766 23.104C103.766 23.944 103.981 24.5973 104.41 25.064C104.84 25.5307 105.39 25.764 106.062 25.764C106.734 25.764 107.285 25.5307 107.714 25.064C108.144 24.5973 108.358 23.944 108.358 23.104ZM127.166 25.708V31H124.814C120.483 31 118.318 28.844 118.318 24.532V20.388H116.358V15.208H118.318V11.4H124.534V15.208H127.11V20.388H124.534V24.644C124.534 25.0173 124.618 25.288 124.786 25.456C124.972 25.624 125.271 25.708 125.682 25.708H127.166ZM137.037 31.196C135.45 31.196 134.022 30.8693 132.753 30.216C131.483 29.5627 130.485 28.6293 129.757 27.416C129.047 26.184 128.693 24.7467 128.693 23.104C128.693 21.4613 129.047 20.0333 129.757 18.82C130.485 17.588 131.483 16.6453 132.753 15.992C134.022 15.3387 135.45 15.012 137.037 15.012C138.623 15.012 140.051 15.3387 141.321 15.992C142.59 16.6453 143.579 17.588 144.289 18.82C145.017 20.0333 145.381 21.4613 145.381 23.104C145.381 24.7467 145.017 26.184 144.289 27.416C143.579 28.6293 142.59 29.5627 141.321 30.216C140.051 30.8693 138.623 31.196 137.037 31.196ZM137.037 25.82C137.615 25.82 138.101 25.596 138.493 25.148C138.885 24.6813 139.081 24 139.081 23.104C139.081 22.208 138.885 21.536 138.493 21.088C138.101 20.6213 137.615 20.388 137.037 20.388C136.458 20.388 135.973 20.6213 135.581 21.088C135.189 21.536 134.993 22.208 134.993 23.104C134.993 24 135.179 24.6813 135.553 25.148C135.945 25.596 136.439 25.82 137.037 25.82Z" fill="#FF6230"/>
<ellipse cx="140" cy="14.5" rx="4" ry="2.5" fill="#55C79E"/>
<ellipse rx="4.04866" ry="2.31598" transform="matrix(-0.954316 -0.298799 0.223507 -0.974702 135.381 14.4671)" fill="#55C79E"/>
<circle cx="137" cy="23" r="4" fill="#FF6230"/>
</svg>
